<svg xmlns="http://www.w3.org/2000/svg" xmlns:xlink="http://www.w3.org/1999/xlink" xmlns:lucid="lucid" width="1641" height="648.65"><g transform="translate(100.00000000000001 147.65322916666668)" lucid:page-tab-id="0_0"><path d="M-500-500h2500v1500H-500z" fill="#fff"/><path d="M125.8 278.45A4.6 4.6 0 0 1 120 274V126a4.6 4.6 0 0 1 5.8-4.45l108.4 28.9A7.8 7.8 0 0 1 240 158v84a7.8 7.8 0 0 1-5.8 7.55z" stroke="#008a0e" stroke-width="2" fill="#c3f7c8"/><path d="M465.8 276.45A4.6 4.6 0 0 1 460 272V124a4.6 4.6 0 0 1 5.8-4.45l108.4 28.9A7.8 7.8 0 0 1 580 156v84a7.8 7.8 0 0 1-5.8 7.55z" stroke="#fcce14" stroke-width="2" fill="#fcce14"/><path d="M934.2 217.2a4.6 4.6 0 0 1 5.8 4.45v148a4.6 4.6 0 0 1-5.8 4.45l-108.4-28.9a7.8 7.8 0 0 1-5.8-7.55v-84a7.8 7.8 0 0 1 5.8-7.55zM934.2 21.55A4.6 4.6 0 0 1 940 26v148a4.6 4.6 0 0 1-5.8 4.45l-108.4-28.9A7.8 7.8 0 0 1 820 142V58a7.8 7.8 0 0 1 5.8-7.55z" stroke="#1071e5" stroke-width="2" fill="#6db1ff"/><path d="M320 166a6 6 0 0 1 6-6h68a6 6 0 0 1 6 6v66.2a6 6 0 0 1-6 6h-68a6 6 0 0 1-6-6z" stroke="#fe7070" stroke-width="2" fill="#e81313"/><use xlink:href="#a" transform="matrix(1,0,0,1,332,172) translate(21.01215277777778 35.27777777777778)"/><path d="M0 66a6 6 0 0 1 6-6h28a6 6 0 0 1 6 6v268a6 6 0 0 1-6 6H6a6 6 0 0 1-6-6z" stroke="#008a0e" stroke-width="2" fill="#c3f7c8"/><path d="M1000 16a6 6 0 0 1 6-6h28a6 6 0 0 1 6 6v168a6 6 0 0 1-6 6h-28a6 6 0 0 1-6-6zM1000 219.85a6 6 0 0 1 6-6h28a6 6 0 0 1 6 6v168a6 6 0 0 1-6 6h-28a6 6 0 0 1-6-6z" stroke="#1071e5" stroke-width="2" fill="#6db1ff"/><path d="M640 174a6 6 0 0 1 6-6h48a6 6 0 0 1 6 6v48a6 6 0 0 1-6 6h-48a6 6 0 0 1-6-6z" stroke="#fe7070" stroke-width="2" fill="#e81313"/><use xlink:href="#a" transform="matrix(1,0,0,1,652,180.0001139389052) translate(11.012152777777779 26.02777777777778)"/><path d="M241.5 200h38.05a.45.45 0 0 0 .45-.45.45.45 0 0 1 .45-.45h22.17" stroke="#3a414a" fill="none"/><path d="M241.5 200.47h-.5v-.94h.5z" stroke="#3a414a" stroke-width=".05" fill="#3a414a"/><path d="M317.38 199.1l-14.26 4.64v-9.27z" stroke="#3a414a" fill="#3a414a"/><path d="M401.5 199.1h41.12" stroke="#3a414a" fill="none"/><path d="M401.5 199.58h-.5v-.95h.5z" stroke="#3a414a" stroke-width=".05" fill="#3a414a"/><path d="M457.38 199.1l-14.26 4.64v-9.27z" stroke="#3a414a" fill="#3a414a"/><path d="M941.5 295.64h41.12" stroke="#3a414a" fill="none"/><path d="M941.5 296.12h-.5v-.95h.5z" stroke="#3a414a" stroke-width=".05" fill="#3a414a"/><path d="M997.38 295.64l-14.26 4.64V291z" stroke="#3a414a" fill="#3a414a"/><path d="M941.5 100h41.12" stroke="#3a414a" fill="none"/><path d="M941.5 100.47h-.5v-.94h.5z" stroke="#3a414a" stroke-width=".05" fill="#3a414a"/><path d="M997.38 100l-14.26 4.64v-9.28z" stroke="#3a414a" fill="#3a414a"/><path d="M701.5 198H754a6 6 0 0 0 6-6v-86a6 6 0 0 1 6-6h36.62" stroke="#3a414a" fill="none"/><path d="M701.5 198.47h-.5v-.94h.5z" stroke="#3a414a" stroke-width=".05" fill="#3a414a"/><path d="M817.38 100l-14.26 4.64v-9.28z" stroke="#3a414a" fill="#3a414a"/><path d="M581.5 198h41.12" stroke="#3a414a" fill="none"/><path d="M581.5 198.47h-.5v-.94h.5z" stroke="#3a414a" stroke-width=".05" fill="#3a414a"/><path d="M637.38 198l-14.26 4.63v-9.26z" stroke="#3a414a" fill="#3a414a"/><path d="M400 175.1a6 6 0 0 1 6-6h228a6 6 0 0 1 6 6v48a6 6 0 0 1-6 6H406a6 6 0 0 1-6-6z" fill="none"/><use xlink:href="#b" transform="matrix(1,0,0,1,400,169.10295636361536) translate(66.38129340277777 38.083767361111114)"/><use xlink:href="#c" transform="matrix(1,0,0,1,400,169.10295636361536) translate(160.06618923611111 38.083767361111114)"/><path d="M760 84a6 6 0 0 1 6-6h228a6 6 0 0 1 6 6v28a6 6 0 0 1-6 6H766a6 6 0 0 1-6-6z" fill="none"/><use xlink:href="#d" transform="matrix(1,0,0,1,760,78.0001139389052) translate(75.029296875 28.08376736111111)"/><path d="M760 256a6 6 0 0 1 6-6h228a6 6 0 0 1 6 6v75.7a6 6 0 0 1-6 6H766a6 6 0 0 1-6-6z" fill="none"/><use xlink:href="#d" transform="matrix(1,0,0,1,760,250) translate(75.029296875 52.083767361111114)"/><path d="M60 175.1a6 6 0 0 1 6-6h228a6 6 0 0 1 6 6v48a6 6 0 0 1-6 6H66a6 6 0 0 1-6-6z" fill="none"/><use xlink:href="#e" transform="matrix(1,0,0,1,60,169.1029563636154) translate(68.63823784722221 38.083767361111114)"/><use xlink:href="#f" transform="matrix(1,0,0,1,60,169.1029563636154) translate(162.32313368055554 38.083767361111114)"/><path d="M-100 6a6 6 0 0 1 6-6h228a6 6 0 0 1 6 6v48a6 6 0 0 1-6 6H-94a6 6 0 0 1-6-6z" fill="none"/><use xlink:href="#g" transform="matrix(1,0,0,1,-100.00000000000001,3.552713678800501e-15) translate(93.44292534722223 38.083767361111114)"/><path d="M41.5 200h61.12" stroke="#3a414a" fill="none"/><path d="M41.5 200.47H41v-.94h.5z" stroke="#3a414a" stroke-width=".05" fill="#3a414a"/><path d="M117.38 200l-14.26 4.63v-9.26z" stroke="#3a414a" fill="#3a414a"/><path d="M280 86a6 6 0 0 1 6-6h148a6 6 0 0 1 6 6v48a6 6 0 0 1-6 6H286a6 6 0 0 1-6-6z" fill="none"/><use xlink:href="#h" transform="matrix(1,0,0,1,280,80) translate(24.411892361111114 21.95095486111111)"/><use xlink:href="#i" transform="matrix(1,0,0,1,280,80) translate(21.89995659722223 54.21657986111111)"/><path d="M550 124a6 6 0 0 1 6-6h228a6 6 0 0 1 6 6v48a6 6 0 0 1-6 6H556a6 6 0 0 1-6-6z" fill="none"/><use xlink:href="#j" transform="matrix(1,0,0,1,550,118.0001139389052) translate(64.41189236111111 38.083767361111114)"/><path d="M930 423.7a6 6 0 0 1 6-6h168a6 6 0 0 1 6 6v50a6 6 0 0 1-6 6H936a6 6 0 0 1-6-6z" fill="none"/><use xlink:href="#k" transform="matrix(1,0,0,1,930,417.7026257263881) translate(39.77756076388889 22.95095486111111)"/><use xlink:href="#l" transform="matrix(1,0,0,1,930,417.7026257263881) translate(39.880642361111114 55.21657986111111)"/><path d="M701.5 198H754a6 6 0 0 1 6 6v85.64a6 6 0 0 0 6 6h36.62" stroke="#3a414a" fill="none"/><path d="M701.5 198.47h-.5v-.94h.5z" stroke="#3a414a" stroke-width=".05" fill="#3a414a"/><path d="M817.38 295.64l-14.26 4.64V291z" stroke="#3a414a" fill="#3a414a"/><path d="M1041.5 100H1299a6 6 0 0 1 6 6v86a6 6 0 0 0 6 6h31.62" stroke="#3a414a" fill="none"/><path d="M1041.5 100.47h-.5v-.94h.5z" stroke="#3a414a" stroke-width=".05" fill="#3a414a"/><path d="M1357.38 198l-14.26 4.63v-9.26z" stroke="#3a414a" fill="#3a414a"/><path d="M1041.5 303.85H1299a6 6 0 0 0 6-6V204a6 6 0 0 1 6-6h31.62" stroke="#3a414a" fill="none"/><path d="M1041.5 304.33h-.5v-.95h.5z" stroke="#3a414a" stroke-width=".05" fill="#3a414a"/><path d="M1357.38 198l-14.26 4.63v-9.26z" stroke="#3a414a" fill="#3a414a"/><path d="M1360 164a6 6 0 0 1 6-6h168a6 6 0 0 1 6 6v68a6 6 0 0 1-6 6h-168a6 6 0 0 1-6-6z" stroke="#000" stroke-width="2" fill="#fff"/><path d="M920-64a6 6 0 0 1 6-6h168a6 6 0 0 1 6 6v44.15a6 6 0 0 1-6 6H926a6 6 0 0 1-6-6z" fill="none"/><use xlink:href="#m" transform="matrix(1,0,0,1,920,-70.00000000000006) translate(13.551432291666671 21.52777777777778)"/><use xlink:href="#n" transform="matrix(1,0,0,1,920,-70.00000000000006) translate(39.880642361111114 53.79340277777778)"/><path d="M-20 6a6 6 0 0 1 6-6h448a6 6 0 0 1 6 6v363.64a6 6 0 0 1-6 6H-14a6 6 0 0 1-6-6z" fill-opacity="0"/><path d="M5.9 0h19.92m9.96 0h19.9m9.96 0h19.92m9.95 0h19.92m9.96 0h19.9m9.96 0h19.92m9.95 0h19.92m9.96 0h19.9m9.96 0h19.92m9.95 0h19.92m9.96 0h19.9m9.96 0h19.92m9.95 0h19.92m9.96 0h19.9m9.96 0H434a6 6 0 0 1 6 6v10.1m0 10.1v20.2m0 10.1v20.2m0 10.1V107m0 10.1v20.22m0 10.1v20.2m0 10.1v20.2m0 10.1v20.2m0 10.1v20.2m0 10.1v20.2m0 10.12v20.2m0 10.1v20.2m0 10.1v10.1a6 6 0 0 1-6 6h-9.96m-9.95 0h-19.92m-9.96 0h-19.9m-9.96 0h-19.92m-9.95 0h-19.92m-9.96 0h-19.9m-9.96 0h-19.92m-9.95 0h-19.92m-9.96 0h-19.9m-9.96 0h-19.92m-9.95 0h-19.92m-9.96 0h-19.9m-9.96 0H65.64m-9.95 0H35.77m-9.96 0H5.92m-9.96 0H-14a6 6 0 0 1-6-6v-10.1m0-10.1v-20.2m0-10.1v-20.2m0-10.1v-20.2m0-10.1v-20.2m0-10.1V208m0-10.1v-20.2m0-10.1v-20.2m0-10.1v-20.2m0-10.1V86.8m0-10.1V56.5m0-10.12V26.2m0-10.1V6a6 6 0 0 1 6-6h9.96" stroke="#000" stroke-width="2" fill="none"/><path d="M280-94a6 6 0 0 1 6-6h818a6 6 0 0 1 6 6v588a6 6 0 0 1-6 6H286a6 6 0 0 1-6-6z" fill-opacity="0"/><path d="M306.2-100h20.2m10.1 0h20.2m10.1 0H387m10.1 0h20.18m10.1 0h20.2m10.1 0h20.2m10.1 0h20.2m10.1 0h20.2m10.1 0h20.18m10.1 0h20.2m10.1 0h20.2m10.1 0h20.2m10.1 0h20.2m10.1 0h20.2m10.1 0h20.18m10.1 0h20.2m10.1 0h20.2m10.1 0h20.2m10.1 0h20.2m10.1 0H902m10.1 0h20.2m10.1 0h20.2m10.1 0h20.2m10.1 0h20.2m10.1 0h20.2m10.1 0h20.18m10.1 0h10.1a6 6 0 0 1 6 6v9.8m0 9.8v19.6m0 9.8v19.6m0 9.8V4m0 9.8v19.6m0 9.8v19.6m0 9.8v19.6m0 9.8v19.6m0 9.8V151m0 9.8v19.6m0 9.8v19.6m0 9.8v19.6m0 9.8v19.6m0 9.8V298m0 9.8v19.6m0 9.8v19.6m0 9.8v19.6m0 9.8v19.6m0 9.8V445m0 9.8v19.6m0 9.8v9.8a6 6 0 0 1-6 6h-10.1m-10.1 0h-20.2m-10.1 0h-20.2m-10.1 0H1003m-10.1 0h-20.18m-10.1 0h-20.2m-10.1 0h-20.2m-10.1 0h-20.2m-10.1 0h-20.2m-10.1 0h-20.18m-10.1 0h-20.2m-10.1 0h-20.2m-10.1 0h-20.2m-10.1 0h-20.2m-10.1 0h-20.2m-10.1 0h-20.18m-10.1 0h-20.2m-10.1 0h-20.2m-10.1 0h-20.2m-10.1 0h-20.2m-10.1 0h-20.2m-10.08 0h-20.2m-10.1 0h-20.2m-10.1 0h-20.2m-10.1 0h-20.2m-10.1 0h-20.2m-10.1 0H306.2m-10.1 0H286a6 6 0 0 1-6-6v-9.8m0-9.8v-19.6m0-9.8v-19.6m0-9.8V396m0-9.8v-19.6m0-9.8v-19.6m0-9.8v-19.6m0-9.8v-19.6m0-9.8V249m0-9.8v-19.6m0-9.8v-19.6m0-9.8v-19.6m0-9.8v-19.6m0-9.8V102m0-9.8V72.6m0-9.8V43.2m0-9.8V13.8m0-9.8v-19.6m0-9.8V-45m0-9.8v-19.6m0-9.8V-94a6 6 0 0 1 6-6h10.1" stroke="#000" stroke-width="2" fill="none"/><path d="M1360 172a6 6 0 0 1 6-6h168a6 6 0 0 1 6 6v48a6 6 0 0 1-6 6h-168a6 6 0 0 1-6-6z" fill="none"/><use xlink:href="#o" transform="matrix(1,0,0,1,1360,166.0002278778104) translate(10.404730902777786 38.083767361111114)"/><use xlink:href="#p" transform="matrix(1,0,0,1,1360,166.0002278778104) translate(108.36480034722223 38.083767361111114)"/><path d="M1120 46a6 6 0 0 1 6-6h168a6 6 0 0 1 6 6v48a6 6 0 0 1-6 6h-168a6 6 0 0 1-6-6z" fill="none"/><use xlink:href="#q" transform="matrix(1,0,0,1,1120,40) translate(10.806206597222229 21.95095486111111)"/><use xlink:href="#r" transform="matrix(1,0,0,1,1120,40) translate(64.12109375 54.21657986111111)"/><path d="M1130 321.64a6 6 0 0 1 6-6h168a6 6 0 0 1 6 6v48a6 6 0 0 1-6 6h-168a6 6 0 0 1-6-6z" fill="none"/><g><use xlink:href="#s" transform="matrix(1,0,0,1,1130,315.6454001359632) translate(37.03233506944446 21.95095486111111)"/><use xlink:href="#r" transform="matrix(1,0,0,1,1130,315.6454001359632) translate(64.12109375 54.21657986111111)"/></g><path d="M7.4-50.91a6 6 0 0 1 6-6.02H264a6 6 0 0 1 6 6v31.07a6 6 0 0 1-6 6H13.4a6 6 0 0 1-6-6z" fill="none"/><g><use xlink:href="#t" transform="matrix(1,0,0,1,12.398854166666638,-51.91478179479108) translate(0 26.700520833333336)"/><use xlink:href="#u" transform="matrix(1,0,0,1,12.398854166666638,-51.91478179479108) translate(132.39583333333334 26.700520833333336)"/></g><path d="M557.4-141.65a6 6 0 0 1 6-6H818a6 6 0 0 1 6 6V-106a6 6 0 0 1-6 6H563.4a6 6 0 0 1-6-6z" fill="none"/><g><use xlink:href="#v" transform="matrix(1,0,0,1,562.3988541666666,-142.65322916666668) translate(0 30.317274305555557)"/><use xlink:href="#w" transform="matrix(1,0,0,1,562.3988541666666,-142.65322916666668) translate(161.95095486111111 30.317274305555557)"/></g><defs><path d="M130 0v-134l666-991c45-67 96-135 147-202-269 9-546 3-821 5v-168h1036v136L502-379c-49 72-103 145-157 216 268-9 546-3 821-5V0H130" id="x"/><use transform="matrix(0.010850694444444444,0,0,0.010850694444444444,0,0)" xlink:href="#x" id="a"/><path d="M180 0v-1490h908v168H370v486h669v168H370v500h727V0H180" id="y"/><path d="M338-670V0H158v-1118h173l1 207c72-158 192-221 342-221 226 0 378 139 378 422V0H872v-695c0-172-96-275-252-275-161 0-282 109-282 300" id="z"/><path d="M613 24c-304 0-509-231-509-576 0-350 205-580 509-580 216 0 392 114 453 309l-173 49c-33-115-133-197-280-197-223 0-326 196-326 419 0 220 103 415 326 415 150 0 252-85 285-206l172 49C1010-95 832 24 613 24" id="A"/><path d="M613 24c-304 0-509-231-509-576 0-350 205-580 509-580 305 0 511 230 511 580 0 345-206 576-511 576zm0-161c226 0 329-195 329-415 0-222-103-419-329-419-223 0-326 196-326 419 0 220 103 415 326 415" id="B"/><path d="M577 24c-279 0-473-224-473-580 0-354 195-576 474-576 218 0 287 134 324 193h14v-551h180V0H922v-173h-20C865-111 790 24 577 24zm27-161c203 0 314-172 314-421 0-247-108-413-314-413-212 0-317 181-317 413 0 235 108 421 317 421" id="C"/><path d="M628 24c-324 0-524-230-524-574 0-343 198-582 503-582 237 0 487 146 487 559v75H286c9 234 145 362 343 362 132 0 231-58 273-172l174 48C1024-91 857 24 628 24zM287-650h624c-17-190-120-322-304-322-192 0-309 151-320 322" id="D"/><path d="M158 0v-1118h174v172h12c41-113 157-188 290-188 26 0 70 2 91 3v181c-11-2-60-10-108-10-161 0-279 109-279 260V0H158" id="E"/><g id="b"><use transform="matrix(0.010850694444444444,0,0,0.010850694444444444,0,0)" xlink:href="#y"/><use transform="matrix(0.010850694444444444,0,0,0.010850694444444444,13.35720486111111,0)" xlink:href="#z"/><use transform="matrix(0.010850694444444444,0,0,0.010850694444444444,26.48654513888889,0)" xlink:href="#A"/><use transform="matrix(0.010850694444444444,0,0,0.010850694444444444,39.181857638888886,0)" xlink:href="#B"/><use transform="matrix(0.010850694444444444,0,0,0.010850694444444444,52.506510416666664,0)" xlink:href="#C"/><use transform="matrix(0.010850694444444444,0,0,0.010850694444444444,66.11328125,0)" xlink:href="#D"/><use transform="matrix(0.010850694444444444,0,0,0.010850694444444444,79.06901041666667,0)" xlink:href="#E"/></g><path d="M154 0v-137l495-537c165-179 249-281 249-418 0-156-121-253-280-253-170 0-278 110-278 278H158c0-264 200-443 465-443 266 0 455 183 455 416 0 161-73 288-336 568L416-179v12h687V0H154" id="F"/><use transform="matrix(0.010850694444444444,0,0,0.010850694444444444,0,0)" xlink:href="#F" id="c"/><path d="M645 0H180v-1490h484c435 0 692 280 692 742 0 466-257 748-711 748zM370-168h263c363 0 539-218 539-580 0-358-176-574-521-574H370v1154" id="G"/><g id="d"><use transform="matrix(0.010850694444444444,0,0,0.010850694444444444,0,0)" xlink:href="#G"/><use transform="matrix(0.010850694444444444,0,0,0.010850694444444444,16.03732638888889,0)" xlink:href="#D"/><use transform="matrix(0.010850694444444444,0,0,0.010850694444444444,28.99305555555556,0)" xlink:href="#A"/><use transform="matrix(0.010850694444444444,0,0,0.010850694444444444,41.68836805555556,0)" xlink:href="#B"/><use transform="matrix(0.010850694444444444,0,0,0.010850694444444444,55.01302083333333,0)" xlink:href="#C"/><use transform="matrix(0.010850694444444444,0,0,0.010850694444444444,68.61979166666667,0)" xlink:href="#D"/><use transform="matrix(0.010850694444444444,0,0,0.010850694444444444,81.57552083333334,0)" xlink:href="#E"/></g><path fill="#008a0e" d="M180 0v-1490h908v168H370v486h669v168H370v500h727V0H180" id="H"/><path fill="#008a0e" d="M338-670V0H158v-1118h173l1 207c72-158 192-221 342-221 226 0 378 139 378 422V0H872v-695c0-172-96-275-252-275-161 0-282 109-282 300" id="I"/><path fill="#008a0e" d="M613 24c-304 0-509-231-509-576 0-350 205-580 509-580 216 0 392 114 453 309l-173 49c-33-115-133-197-280-197-223 0-326 196-326 419 0 220 103 415 326 415 150 0 252-85 285-206l172 49C1010-95 832 24 613 24" id="J"/><path fill="#008a0e" d="M613 24c-304 0-509-231-509-576 0-350 205-580 509-580 305 0 511 230 511 580 0 345-206 576-511 576zm0-161c226 0 329-195 329-415 0-222-103-419-329-419-223 0-326 196-326 419 0 220 103 415 326 415" id="K"/><path fill="#008a0e" d="M577 24c-279 0-473-224-473-580 0-354 195-576 474-576 218 0 287 134 324 193h14v-551h180V0H922v-173h-20C865-111 790 24 577 24zm27-161c203 0 314-172 314-421 0-247-108-413-314-413-212 0-317 181-317 413 0 235 108 421 317 421" id="L"/><path fill="#008a0e" d="M628 24c-324 0-524-230-524-574 0-343 198-582 503-582 237 0 487 146 487 559v75H286c9 234 145 362 343 362 132 0 231-58 273-172l174 48C1024-91 857 24 628 24zM287-650h624c-17-190-120-322-304-322-192 0-309 151-320 322" id="M"/><path fill="#008a0e" d="M158 0v-1118h174v172h12c41-113 157-188 290-188 26 0 70 2 91 3v181c-11-2-60-10-108-10-161 0-279 109-279 260V0H158" id="N"/><g id="e"><use transform="matrix(0.010850694444444444,0,0,0.010850694444444444,0,0)" xlink:href="#H"/><use transform="matrix(0.010850694444444444,0,0,0.010850694444444444,13.35720486111111,0)" xlink:href="#I"/><use transform="matrix(0.010850694444444444,0,0,0.010850694444444444,26.48654513888889,0)" xlink:href="#J"/><use transform="matrix(0.010850694444444444,0,0,0.010850694444444444,39.181857638888886,0)" xlink:href="#K"/><use transform="matrix(0.010850694444444444,0,0,0.010850694444444444,52.506510416666664,0)" xlink:href="#L"/><use transform="matrix(0.010850694444444444,0,0,0.010850694444444444,66.11328125,0)" xlink:href="#M"/><use transform="matrix(0.010850694444444444,0,0,0.010850694444444444,79.06901041666667,0)" xlink:href="#N"/></g><path fill="#008a0e" d="M653-1490V0H466v-1314h-10L96-1047v-204l324-239h233" id="O"/><use transform="matrix(0.010850694444444444,0,0,0.010850694444444444,0,0)" xlink:href="#O" id="f"/><path d="M370-1490V0H180v-1490h190" id="P"/><path d="M158 418v-1536h174v179h20c37-59 106-193 324-193 279 0 474 222 474 576 0 356-194 580-473 580-213 0-288-135-325-197h-14v591H158zm492-555c209 0 317-186 317-421 0-232-105-413-317-413-206 0-314 166-314 413 0 249 111 421 314 421" id="Q"/><path d="M537 14c-226 0-379-139-379-422v-710h180v695c0 172 97 275 253 275 160 0 281-109 281-300v-670h181V0H879v-209C806-46 684 14 537 14" id="R"/><path d="M598-1118v154H368v674c0 100 37 144 132 144 23 0 62-6 92-12L629-6c-37 13-88 20-134 20-193 0-307-107-307-290v-688H20v-154h168v-266h180v266h230" id="S"/><g id="g"><use transform="matrix(0.010850694444444444,0,0,0.010850694444444444,0,0)" xlink:href="#P"/><use transform="matrix(0.010850694444444444,0,0,0.010850694444444444,5.967881944444445,0)" xlink:href="#z"/><use transform="matrix(0.010850694444444444,0,0,0.010850694444444444,19.09722222222222,0)" xlink:href="#Q"/><use transform="matrix(0.010850694444444444,0,0,0.010850694444444444,32.70399305555556,0)" xlink:href="#R"/><use transform="matrix(0.010850694444444444,0,0,0.010850694444444444,45.84418402777778,0)" xlink:href="#S"/></g><path d="M180 0v-1490h528c311 0 458 177 458 395 0 191-114 278-244 313v14c139 9 302 137 302 371 0 225-148 397-499 397H180zm190-168h350c232 0 321-102 321-231 0-149-120-277-311-277H370v508zm0-668h328c160 0 286-101 286-255 0-129-87-231-280-231H370v486" id="T"/><path d="M338-1490V0H158v-1490h180" id="U"/><path d="M158 0v-1490h180v865h22l478-493h223L593-638 1096 0H865L456-523 338-412V0H158" id="V"/><g id="h"><use transform="matrix(0.010850694444444444,0,0,0.010850694444444444,0,0)" xlink:href="#T"/><use transform="matrix(0.010850694444444444,0,0,0.010850694444444444,14.539930555555555,0)" xlink:href="#B"/><use transform="matrix(0.010850694444444444,0,0,0.010850694444444444,27.864583333333332,0)" xlink:href="#S"/><use transform="matrix(0.010850694444444444,0,0,0.010850694444444444,34.592013888888886,0)" xlink:href="#S"/><use transform="matrix(0.010850694444444444,0,0,0.010850694444444444,41.861979166666664,0)" xlink:href="#U"/><use transform="matrix(0.010850694444444444,0,0,0.010850694444444444,47.24392361111111,0)" xlink:href="#D"/><use transform="matrix(0.010850694444444444,0,0,0.010850694444444444,60.19965277777778,0)" xlink:href="#z"/><use transform="matrix(0.010850694444444444,0,0,0.010850694444444444,73.32899305555554,0)" xlink:href="#D"/><use transform="matrix(0.010850694444444444,0,0,0.010850694444444444,86.28472222222221,0)" xlink:href="#A"/><use transform="matrix(0.010850694444444444,0,0,0.010850694444444444,98.98003472222221,0)" xlink:href="#V"/></g><path d="M218-607c0-325 108-727 258-974h175c-155 315-250 682-250 974 0 265 78 531 250 886H476C306-10 218-315 218-607" id="W"/><path d="M657 26c-323 0-524-166-541-416h195c15 169 171 246 346 246 202 0 356-106 356-265 5-203-294-238-475-293-239-73-380-191-380-389 0-252 224-419 512-419 294 0 499 171 508 396H992c-17-145-151-228-328-228-193 0-321 102-321 242 0 156 175 211 284 241l149 41c160 44 422 134 422 412 0 244-197 432-541 432" id="X"/><path d="M158 0v-1118h180V0H158zm91-1301c-68 0-125-53-125-119s57-119 125-119c69 0 126 53 126 119s-57 119-126 119" id="Y"/><path d="M611 442c-248 0-391-105-460-228l146-94c47 65 117 165 314 165 178 0 307-82 307-266v-224h-17C863-141 792-18 576-18c-268 0-472-195-472-546 0-346 197-568 476-568 216 0 288 133 326 193h17v-179h175V29c0 289-215 413-487 413zm-5-620c203 0 314-146 314-390 0-237-108-403-314-403-213 0-319 180-319 403 0 230 109 390 319 390" id="Z"/><path d="M471 26C259 26 90-98 90-318c0-256 228-303 435-329 202-27 287-16 287-108 0-139-79-219-234-219-161 0-248 86-283 164l-173-57c86-203 278-265 451-265 150 0 419 46 419 395V0H815v-152h-12C765-73 660 26 471 26zm31-159c199 0 310-134 310-271v-155c-30 35-226 55-295 64-131 17-246 59-246 186 0 116 97 176 231 176" id="aa"/><path d="M96 279C273-86 346-350 346-607c0-292-95-659-250-974h175c150 246 258 650 258 974 0 297-91 602-258 886H96" id="ab"/><g id="i"><use transform="matrix(0.010850694444444444,0,0,0.010850694444444444,0,0)" xlink:href="#W"/><use transform="matrix(0.010850694444444444,0,0,0.010850694444444444,8.10546875,0)" xlink:href="#X"/><use transform="matrix(0.010850694444444444,0,0,0.010850694444444444,22.36328125,0)" xlink:href="#Y"/><use transform="matrix(0.010850694444444444,0,0,0.010850694444444444,27.745225694444443,0)" xlink:href="#Z"/><use transform="matrix(0.010850694444444444,0,0,0.010850694444444444,41.373697916666664,0)" xlink:href="#z"/><use transform="matrix(0.010850694444444444,0,0,0.010850694444444444,54.50303819444444,0)" xlink:href="#aa"/><use transform="matrix(0.010850694444444444,0,0,0.010850694444444444,66.98133680555556,0)" xlink:href="#S"/><use transform="matrix(0.010850694444444444,0,0,0.010850694444444444,74.25130208333333,0)" xlink:href="#R"/><use transform="matrix(0.010850694444444444,0,0,0.010850694444444444,87.39149305555554,0)" xlink:href="#E"/><use transform="matrix(0.010850694444444444,0,0,0.010850694444444444,95.38845486111111,0)" xlink:href="#D"/><use transform="matrix(0.010850694444444444,0,0,0.010850694444444444,108.09461805555556,0)" xlink:href="#ab"/></g><g id="j"><use transform="matrix(0.010850694444444444,0,0,0.010850694444444444,0,0)" xlink:href="#T"/><use transform="matrix(0.010850694444444444,0,0,0.010850694444444444,14.539930555555555,0)" xlink:href="#B"/><use transform="matrix(0.010850694444444444,0,0,0.010850694444444444,27.864583333333332,0)" xlink:href="#S"/><use transform="matrix(0.010850694444444444,0,0,0.010850694444444444,34.592013888888886,0)" xlink:href="#S"/><use transform="matrix(0.010850694444444444,0,0,0.010850694444444444,41.861979166666664,0)" xlink:href="#U"/><use transform="matrix(0.010850694444444444,0,0,0.010850694444444444,47.24392361111111,0)" xlink:href="#D"/><use transform="matrix(0.010850694444444444,0,0,0.010850694444444444,60.19965277777778,0)" xlink:href="#z"/><use transform="matrix(0.010850694444444444,0,0,0.010850694444444444,73.32899305555554,0)" xlink:href="#D"/><use transform="matrix(0.010850694444444444,0,0,0.010850694444444444,86.28472222222221,0)" xlink:href="#A"/><use transform="matrix(0.010850694444444444,0,0,0.010850694444444444,98.98003472222221,0)" xlink:href="#V"/></g><path d="M180 0v-1490h510c348 0 508 209 508 474 0 266-160 477-507 477H370V0H180zm190-706h312c236 0 327-133 327-310 0-176-91-307-329-307H370v617" id="ac"/><g id="k"><use transform="matrix(0.010850694444444444,0,0,0.010850694444444444,0,0)" xlink:href="#ac"/><use transform="matrix(0.010850694444444444,0,0,0.010850694444444444,14.192708333333332,0)" xlink:href="#E"/><use transform="matrix(0.010850694444444444,0,0,0.010850694444444444,22.189670138888886,0)" xlink:href="#D"/><use transform="matrix(0.010850694444444444,0,0,0.010850694444444444,35.14539930555555,0)" xlink:href="#C"/><use transform="matrix(0.010850694444444444,0,0,0.010850694444444444,48.752170138888886,0)" xlink:href="#Y"/><use transform="matrix(0.010850694444444444,0,0,0.010850694444444444,54.13411458333333,0)" xlink:href="#A"/><use transform="matrix(0.010850694444444444,0,0,0.010850694444444444,66.82942708333333,0)" xlink:href="#S"/><use transform="matrix(0.010850694444444444,0,0,0.010850694444444444,73.88237847222221,0)" xlink:href="#D"/><use transform="matrix(0.010850694444444444,0,0,0.010850694444444444,86.83810763888889,0)" xlink:href="#C"/></g><g id="l"><use transform="matrix(0.010850694444444444,0,0,0.010850694444444444,0,0)" xlink:href="#X"/><use transform="matrix(0.010850694444444444,0,0,0.010850694444444444,14.2578125,0)" xlink:href="#Y"/><use transform="matrix(0.010850694444444444,0,0,0.010850694444444444,19.639756944444443,0)" xlink:href="#Z"/><use transform="matrix(0.010850694444444444,0,0,0.010850694444444444,33.268229166666664,0)" xlink:href="#z"/><use transform="matrix(0.010850694444444444,0,0,0.010850694444444444,46.39756944444444,0)" xlink:href="#aa"/><use transform="matrix(0.010850694444444444,0,0,0.010850694444444444,58.87586805555555,0)" xlink:href="#S"/><use transform="matrix(0.010850694444444444,0,0,0.010850694444444444,66.14583333333333,0)" xlink:href="#R"/><use transform="matrix(0.010850694444444444,0,0,0.010850694444444444,79.28602430555554,0)" xlink:href="#E"/><use transform="matrix(0.010850694444444444,0,0,0.010850694444444444,87.2829861111111,0)" xlink:href="#D"/></g><path d="M180 0v-1490h510c348 0 508 194 508 460 0 198-88 351-276 417L1256 0h-220L726-579c-117 2-238 0-356 1V0H180zm190-747h312c235 0 327-108 327-283 0-177-92-293-329-293H370v576" id="ad"/><path d="M538 24C308 24 148-78 108-271l171-41c32 123 123 178 257 178 156 0 256-77 256-169 0-77-54-128-164-154l-186-44c-203-48-300-148-300-305 0-192 176-326 414-326 230 0 351 112 402 269l-163 42c-31-80-94-158-238-158-133 0-233 69-233 162 0 83 57 129 188 160l169 40c203 48 298 149 298 302 0 196-179 339-441 339" id="ae"/><g id="m"><use transform="matrix(0.010850694444444444,0,0,0.010850694444444444,0,0)" xlink:href="#ad"/><use transform="matrix(0.010850694444444444,0,0,0.010850694444444444,13.975694444444445,0)" xlink:href="#D"/><use transform="matrix(0.010850694444444444,0,0,0.010850694444444444,26.931423611111104,0)" xlink:href="#A"/><use transform="matrix(0.010850694444444444,0,0,0.010850694444444444,39.62673611111111,0)" xlink:href="#B"/><use transform="matrix(0.010850694444444444,0,0,0.010850694444444444,52.951388888888886,0)" xlink:href="#z"/><use transform="matrix(0.010850694444444444,0,0,0.010850694444444444,66.08072916666666,0)" xlink:href="#ae"/><use transform="matrix(0.010850694444444444,0,0,0.010850694444444444,77.8103298611111,0)" xlink:href="#S"/><use transform="matrix(0.010850694444444444,0,0,0.010850694444444444,85.08029513888887,0)" xlink:href="#E"/><use transform="matrix(0.010850694444444444,0,0,0.010850694444444444,93.44618055555556,0)" xlink:href="#R"/><use transform="matrix(0.010850694444444444,0,0,0.010850694444444444,106.58637152777777,0)" xlink:href="#A"/><use transform="matrix(0.010850694444444444,0,0,0.010850694444444444,119.28168402777777,0)" xlink:href="#S"/><use transform="matrix(0.010850694444444444,0,0,0.010850694444444444,126.33463541666666,0)" xlink:href="#D"/><use transform="matrix(0.010850694444444444,0,0,0.010850694444444444,139.29036458333331,0)" xlink:href="#C"/></g><g id="n"><use transform="matrix(0.010850694444444444,0,0,0.010850694444444444,0,0)" xlink:href="#X"/><use transform="matrix(0.010850694444444444,0,0,0.010850694444444444,14.2578125,0)" xlink:href="#Y"/><use transform="matrix(0.010850694444444444,0,0,0.010850694444444444,19.639756944444443,0)" xlink:href="#Z"/><use transform="matrix(0.010850694444444444,0,0,0.010850694444444444,33.268229166666664,0)" xlink:href="#z"/><use transform="matrix(0.010850694444444444,0,0,0.010850694444444444,46.39756944444444,0)" xlink:href="#aa"/><use transform="matrix(0.010850694444444444,0,0,0.010850694444444444,58.87586805555555,0)" xlink:href="#S"/><use transform="matrix(0.010850694444444444,0,0,0.010850694444444444,66.14583333333333,0)" xlink:href="#R"/><use transform="matrix(0.010850694444444444,0,0,0.010850694444444444,79.28602430555554,0)" xlink:href="#E"/><use transform="matrix(0.010850694444444444,0,0,0.010850694444444444,87.2829861111111,0)" xlink:href="#D"/></g><path d="M52 0l541-1490h220L1361 0h-200l-149-416H398L254 0H52zm404-582h497c-103-290-145-390-251-756-108 377-145 460-246 756" id="af"/><path d="M158 0v-1118h175l1 205c55-151 181-225 313-225 147 0 245 90 285 228 53-141 190-228 352-228 194 0 352 125 352 384V0h-181v-749c0-161-105-225-225-225-151 0-243 103-243 244V0H807v-767c0-124-93-207-219-207-131 0-250 92-250 270V0H158" id="ag"/><path d="M140 405l46-156c120 36 205 19 263-150l32-93L54-1118h197c107 313 237 620 324 950 87-331 219-637 326-950h196L606 167c-68 178-176 259-334 259-64 0-113-12-132-21" id="ah"/><g id="o"><use transform="matrix(0.010850694444444444,0,0,0.010850694444444444,0,0)" xlink:href="#af"/><use transform="matrix(0.010850694444444444,0,0,0.010850694444444444,15.33203125,0)" xlink:href="#z"/><use transform="matrix(0.010850694444444444,0,0,0.010850694444444444,28.461371527777775,0)" xlink:href="#B"/><use transform="matrix(0.010850694444444444,0,0,0.010850694444444444,41.78602430555556,0)" xlink:href="#ag"/><use transform="matrix(0.010850694444444444,0,0,0.010850694444444444,61.252170138888886,0)" xlink:href="#aa"/><use transform="matrix(0.010850694444444444,0,0,0.010850694444444444,73.73046875,0)" xlink:href="#U"/><use transform="matrix(0.010850694444444444,0,0,0.010850694444444444,79.22092013888889,0)" xlink:href="#ah"/></g><g id="p"><use transform="matrix(0.010850694444444444,0,0,0.010850694444444444,0,0)" xlink:href="#X"/><use transform="matrix(0.010850694444444444,0,0,0.010850694444444444,14.2578125,0)" xlink:href="#A"/><use transform="matrix(0.010850694444444444,0,0,0.010850694444444444,26.953125,0)" xlink:href="#B"/><use transform="matrix(0.010850694444444444,0,0,0.010850694444444444,40.27777777777778,0)" xlink:href="#E"/><use transform="matrix(0.010850694444444444,0,0,0.010850694444444444,48.27473958333333,0)" xlink:href="#D"/></g><g id="q"><use transform="matrix(0.010850694444444444,0,0,0.010850694444444444,0,0)" xlink:href="#ad"/><use transform="matrix(0.010850694444444444,0,0,0.010850694444444444,13.975694444444445,0)" xlink:href="#D"/><use transform="matrix(0.010850694444444444,0,0,0.010850694444444444,26.931423611111104,0)" xlink:href="#A"/><use transform="matrix(0.010850694444444444,0,0,0.010850694444444444,39.62673611111111,0)" xlink:href="#B"/><use transform="matrix(0.010850694444444444,0,0,0.010850694444444444,52.951388888888886,0)" xlink:href="#z"/><use transform="matrix(0.010850694444444444,0,0,0.010850694444444444,66.08072916666666,0)" xlink:href="#ae"/><use transform="matrix(0.010850694444444444,0,0,0.010850694444444444,77.8103298611111,0)" xlink:href="#S"/><use transform="matrix(0.010850694444444444,0,0,0.010850694444444444,85.08029513888887,0)" xlink:href="#E"/><use transform="matrix(0.010850694444444444,0,0,0.010850694444444444,93.44618055555556,0)" xlink:href="#R"/><use transform="matrix(0.010850694444444444,0,0,0.010850694444444444,106.58637152777777,0)" xlink:href="#A"/><use transform="matrix(0.010850694444444444,0,0,0.010850694444444444,119.28168402777777,0)" xlink:href="#S"/><use transform="matrix(0.010850694444444444,0,0,0.010850694444444444,126.55164930555556,0)" xlink:href="#Y"/><use transform="matrix(0.010850694444444444,0,0,0.010850694444444444,131.93359375,0)" xlink:href="#B"/><use transform="matrix(0.010850694444444444,0,0,0.010850694444444444,145.25824652777777,0)" xlink:href="#z"/></g><g id="r"><use transform="matrix(0.010850694444444444,0,0,0.010850694444444444,0,0)" xlink:href="#y"/><use transform="matrix(0.010850694444444444,0,0,0.010850694444444444,13.35720486111111,0)" xlink:href="#E"/><use transform="matrix(0.010850694444444444,0,0,0.010850694444444444,22.0703125,0)" xlink:href="#E"/><use transform="matrix(0.010850694444444444,0,0,0.010850694444444444,30.06727430555556,0)" xlink:href="#B"/><use transform="matrix(0.010850694444444444,0,0,0.010850694444444444,43.391927083333336,0)" xlink:href="#E"/></g><g id="s"><use transform="matrix(0.010850694444444444,0,0,0.010850694444444444,0,0)" xlink:href="#ac"/><use transform="matrix(0.010850694444444444,0,0,0.010850694444444444,14.192708333333332,0)" xlink:href="#E"/><use transform="matrix(0.010850694444444444,0,0,0.010850694444444444,22.189670138888886,0)" xlink:href="#D"/><use transform="matrix(0.010850694444444444,0,0,0.010850694444444444,35.14539930555555,0)" xlink:href="#C"/><use transform="matrix(0.010850694444444444,0,0,0.010850694444444444,48.752170138888886,0)" xlink:href="#Y"/><use transform="matrix(0.010850694444444444,0,0,0.010850694444444444,54.13411458333333,0)" xlink:href="#A"/><use transform="matrix(0.010850694444444444,0,0,0.010850694444444444,66.82942708333333,0)" xlink:href="#S"/><use transform="matrix(0.010850694444444444,0,0,0.010850694444444444,74.0993923611111,0)" xlink:href="#Y"/><use transform="matrix(0.010850694444444444,0,0,0.010850694444444444,79.48133680555554,0)" xlink:href="#B"/><use transform="matrix(0.010850694444444444,0,0,0.010850694444444444,92.80598958333331,0)" xlink:href="#z"/></g><path fill="#3a414a" d="M681 22C323 22 94-145 85-462h297c10 151 131 226 296 226 163 0 271-77 271-190 0-102-95-149-257-189l-164-41c-252-61-403-188-403-405 0-269 236-449 560-449 330 0 546 183 551 445H941c-11-119-106-188-259-188-156 0-244 72-244 172-3 156 226 185 373 221 250 61 445 186 445 436 0 271-213 446-575 446" id="ai"/><path fill="#3a414a" d="M128 0v-1118h300V0H128zm150-1264c-91 0-165-68-165-154 0-85 74-154 165-154 90 0 165 69 165 154 0 86-75 154-165 154" id="aj"/><path fill="#3a414a" d="M625 442c-280 0-454-114-503-274l258-72c28 63 97 128 243 128 153 0 246-69 246-216v-206h-23C805-108 717-16 536-16 284-16 81-191 81-561c0-378 208-571 456-571 188 0 280 113 321 202h13v-188h295V-9c0 303-226 451-541 451zm5-686c153 0 240-119 240-319 0-198-86-329-240-329-158 0-241 137-241 329 0 195 85 319 241 319" id="ak"/><path fill="#3a414a" d="M428-647V0H128v-1118h283l4 231c63-156 176-245 348-245 232 0 384 159 384 421V0H847v-659c0-139-76-222-202-222-128 0-217 86-217 234" id="al"/><path fill="#3a414a" d="M440 22C227 22 68-92 68-313c0-250 202-322 422-343 195-21 271-24 271-105 0-95-63-149-175-149-116 0-187 57-211 129l-275-46c57-194 237-305 487-305 240 0 474 108 474 379V0H777v-155h-10C713-51 605 22 440 22zm85-211c140 0 238-93 238-211v-121c-37 26-156 42-222 51-111 16-185 59-185 149 0 87 70 132 169 132" id="am"/><path fill="#3a414a" d="M683-1118v229H474v562c0 71 29 104 102 104 23 0 73-7 95-13l43 225C647 9 580 16 520 16 296 16 174-96 174-301v-588H20v-229h154v-266h300v266h209" id="an"/><path fill="#3a414a" d="M513 14c-232 0-385-159-385-421v-711h300v659c0 139 76 222 202 222 127 0 217-86 217-234v-647h301V0H864l-4-232C797-74 683 14 513 14" id="ao"/><path fill="#3a414a" d="M128 0v-1118h290v195h12c54-169 184-238 367-200v268c-27-8-86-15-130-15-138 0-239 95-239 234V0H128" id="ap"/><path fill="#3a414a" d="M633 22C291 22 81-200 81-553c0-345 210-579 537-579 292 0 525 185 525 567v84H378c7 183 109 277 260 277 105 0 184-46 216-132l272 51C1071-99 893 22 633 22zM380-669h474c-15-146-94-237-233-237-143 0-229 99-241 237" id="aq"/><g id="t"><use transform="matrix(0.013020833333333334,0,0,0.013020833333333334,0,0)" xlink:href="#ai"/><use transform="matrix(0.013020833333333334,0,0,0.013020833333333334,17.4609375,0)" xlink:href="#aj"/><use transform="matrix(0.013020833333333334,0,0,0.013020833333333334,24.6875,0)" xlink:href="#ak"/><use transform="matrix(0.013020833333333334,0,0,0.013020833333333334,41.536458333333336,0)" xlink:href="#al"/><use transform="matrix(0.013020833333333334,0,0,0.013020833333333334,58.138020833333336,0)" xlink:href="#am"/><use transform="matrix(0.013020833333333334,0,0,0.013020833333333334,73.61979166666667,0)" xlink:href="#an"/><use transform="matrix(0.013020833333333334,0,0,0.013020833333333334,83.38541666666667,0)" xlink:href="#ao"/><use transform="matrix(0.013020833333333334,0,0,0.013020833333333334,99.98697916666667,0)" xlink:href="#ap"/><use transform="matrix(0.013020833333333334,0,0,0.013020833333333334,110.1953125,0)" xlink:href="#aq"/></g><path fill="#3a414a" d="M135 0v-1490h997v253H440v360h640v249H440v375h694V0H135" id="ar"/><path fill="#3a414a" d="M42 0l360-574-338-544h324c72 124 151 261 209 394 58-134 140-271 215-394h318L785-570 1146 0H824c-79-136-169-280-234-425C528-278 439-134 360 0H42" id="as"/><path fill="#3a414a" d="M628 22C291 22 81-210 81-554c0-346 210-578 547-578 265 0 455 142 497 372l-279 52c-25-116-99-188-215-188-160 0-244 139-244 341 0 200 84 341 244 341 116 0 193-74 217-195l279 51C1085-123 896 22 628 22" id="at"/><path fill="#3a414a" d="M628 22C291 22 81-210 81-554c0-346 210-578 547-578 336 0 547 232 547 578 0 344-211 576-547 576zm0-236c160 0 242-146 242-341 0-197-82-341-242-341S387-753 387-555c0 195 81 341 241 341" id="au"/><g id="u"><use transform="matrix(0.013020833333333334,0,0,0.013020833333333334,0,0)" xlink:href="#ar"/><use transform="matrix(0.013020833333333334,0,0,0.013020833333333334,16.197916666666668,0)" xlink:href="#as"/><use transform="matrix(0.013020833333333334,0,0,0.013020833333333334,32.044270833333336,0)" xlink:href="#an"/><use transform="matrix(0.013020833333333334,0,0,0.013020833333333334,41.809895833333336,0)" xlink:href="#ap"/><use transform="matrix(0.013020833333333334,0,0,0.013020833333333334,52.3046875,0)" xlink:href="#am"/><use transform="matrix(0.013020833333333334,0,0,0.013020833333333334,67.78645833333333,0)" xlink:href="#at"/><use transform="matrix(0.013020833333333334,0,0,0.013020833333333334,83.4765625,0)" xlink:href="#an"/><use transform="matrix(0.013020833333333334,0,0,0.013020833333333334,92.98177083333333,0)" xlink:href="#au"/><use transform="matrix(0.013020833333333334,0,0,0.013020833333333334,109.3359375,0)" xlink:href="#ap"/></g><path fill="#3a414a" d="M135 0v-1490h581c339 0 533 210 533 503 0 295-197 500-540 500H440V0H135zm305-733h220c186 0 274-104 274-254s-88-251-275-251H440v505" id="av"/><path fill="#3a414a" d="M572 22C302 22 117-98 78-306l279-48c29 105 101 156 224 156 114 0 185-48 185-115 0-118-228-130-337-155-215-49-322-150-322-317 0-215 187-347 470-347 265 0 424 116 466 298l-266 47c-24-76-87-130-196-130-98 0-174 46-174 113 0 56 38 95 144 117l201 40c216 44 320 143 320 302 0 220-207 367-500 367" id="aw"/><g id="v"><use transform="matrix(0.015190972222222224,0,0,0.015190972222222224,0,0)" xlink:href="#av"/><use transform="matrix(0.015190972222222224,0,0,0.015190972222222224,20.15842013888889,0)" xlink:href="#ap"/><use transform="matrix(0.015190972222222224,0,0,0.015190972222222224,32.068142361111114,0)" xlink:href="#au"/><use transform="matrix(0.015190972222222224,0,0,0.015190972222222224,51.14800347222223,0)" xlink:href="#at"/><use transform="matrix(0.015190972222222224,0,0,0.015190972222222224,69.453125,0)" xlink:href="#aq"/><use transform="matrix(0.015190972222222224,0,0,0.015190972222222224,87.98611111111111,0)" xlink:href="#aw"/><use transform="matrix(0.015190972222222224,0,0,0.015190972222222224,105.41015625,0)" xlink:href="#aw"/><use transform="matrix(0.015190972222222224,0,0,0.015190972222222224,122.83420138888889,0)" xlink:href="#au"/><use transform="matrix(0.015190972222222224,0,0,0.015190972222222224,141.9140625,0)" xlink:href="#ap"/></g><path fill="#3a414a" d="M135 0v-1490h468l242 684c30 94 76 293 111 455 34-161 80-360 110-455l238-684h470V0h-307c0-447-3-765 11-1227-122 503-246 788-395 1227H826C676-435 552-717 427-1215c15 453 11 775 11 1215H135" id="ax"/><path fill="#3a414a" d="M537 19C279 19 81-185 81-557c0-382 206-575 454-575 190 0 278 113 318 202h10v-560h300V0H868v-179h-15C812-89 719 19 537 19zm92-241c153 0 240-134 240-336 0-203-86-334-240-334-158 0-240 138-240 334 0 197 84 336 240 336" id="ay"/><path fill="#3a414a" d="M428-1490V0H128v-1490h300" id="az"/><g id="w"><use transform="matrix(0.015190972222222224,0,0,0.015190972222222224,0,0)" xlink:href="#ax"/><use transform="matrix(0.015190972222222224,0,0,0.015190972222222224,28.984375000000004,0)" xlink:href="#au"/><use transform="matrix(0.015190972222222224,0,0,0.015190972222222224,48.064236111111114,0)" xlink:href="#ay"/><use transform="matrix(0.015190972222222224,0,0,0.015190972222222224,67.67578125,0)" xlink:href="#aq"/><use transform="matrix(0.015190972222222224,0,0,0.015190972222222224,86.20876736111111,0)" xlink:href="#az"/></g></defs></g></svg>