<?xml version="1.0" encoding="utf-8" standalone="yes"?>
<!DOCTYPE svg PUBLIC "-//W3C//DTD SVG 1.1//EN" "http://www.w3.org/Graphics/SVG/1.1/DTD/svg11.dtd">
<svg width="1092" height="504" viewBox="0 0 1092 504" style="fill:none;stroke:none;fill-rule:evenodd;clip-rule:evenodd;stroke-linecap:round;stroke-linejoin:round;stroke-miterlimit:1.5;" version="1.1" xmlns="http://www.w3.org/2000/svg" xmlns:xlink="http://www.w3.org/1999/xlink"><style class="text-font-style fontImports" data-font-family="Roboto">@import url('https://fonts.googleapis.com/css2?family=Roboto:wght@400;700&amp;display=block');</style><g id="items" style="isolation: isolate"><g id="blend" style="mix-blend-mode: normal"><g id="g-root-sy_1_cu_v4vk6sctjs3l-fill" data-item-order="-239068" transform="translate(14, 110)"><g id="sy_1_cu_v4vk6sctjs3l-fill" stroke="none" fill="#e8f9ff"><g><path d="M 10 106L 10 10L 226 10L 178 34L 178 106L 10 106Z"></path></g></g></g><g id="g-root-sy_2_cu_4il0j8ctjs3m-fill" data-item-order="-239064" transform="translate(182.00009155273438, 110)"><g id="sy_2_cu_4il0j8ctjs3m-fill" stroke="none" fill="#edf4ff"><g><path d="M 10 130L 10 34L 226 34L 178 58L 178 130L 10 130ZM 58 10L 58 34L 10 34L 58 10Z"></path></g></g></g><g id="g-root-sy_3_cu_1hcljw4ctjua3-fill" data-item-order="-239060" transform="translate(350.0000915527344, 134)"><g id="sy_3_cu_1hcljw4ctjua3-fill" stroke="none" fill="#f3f0ff"><g><path d="M 10 130L 10 34L 226 34L 178 58L 178 130L 10 130ZM 58.000022 10L 58.000022 34L 10.000122 34L 58.000022 10Z"></path></g></g></g><g id="g-root-sy_4_cu_zly0hgctjthg-fill" data-item-order="-239056" transform="translate(518.0001220703125, 158)"><g id="sy_4_cu_zly0hgctjthg-fill" stroke="none" fill="#faf0ff"><g><path d="M 10 34L 10 130L 178 130L 178 58L 226 34L 10 34ZM 57.9999 10L 57.9999 34L 10 34L 57.9999 10Z"></path></g></g></g><g id="g-root-sy_5_cu_dfgyycctjsp9-fill" data-item-order="-239052" transform="translate(686, 182)"><g id="sy_5_cu_dfgyycctjsp9-fill" stroke="none" fill="#ffebf7"><g><path d="M 10.000122 130L 10.000122 34L 226.000122 34L 178.000122 58L 178.000122 130L 10.000122 130ZM 58.0001 10L 58.0001 34L 10 34L 58.0001 10Z"></path></g></g></g><g id="g-root-sy_6_cu_1upxhisctjrpi-fill" data-item-order="-239048" transform="translate(854, 206)"><g id="sy_6_cu_1upxhisctjrpi-fill" stroke="none" fill="#ffeceb"><g><path d="M 10 130L 10 34L 166 34L 166 22L 214 82L 166 143L 166 130L 10 130ZM 58 10L 58 34L 10 34L 58 10Z"></path></g></g></g><g id="g-root-tx_timeseri_1hegz5gctjtaf-fill" data-item-order="0" transform="translate(320, 38)"><g id="tx_timeseri_1hegz5gctjtaf-fill" stroke="none" fill="#484848"><g><text style="font: bold 25px &quot;Roboto&quot;, sans-serif; white-space: pre;" font-weight="bold" font-size="25px" font-family="'Roboto', sans-serif"><tspan x="16.6" y="43.2" dominant-baseline="ideographic">Time-Series Data Analysis Process</tspan></text></g></g></g><g id="g-root-tx_datainge_5vvucctjtag-fill" data-item-order="0" transform="translate(26, 134)"><g id="tx_datainge_5vvucctjtag-fill" stroke="none" fill="#1eabda"><g><text style="font: 20px &quot;Roboto&quot;, sans-serif; white-space: pre;" font-size="20px" font-family="'Roboto', sans-serif"><tspan x="15.06" y="34" dominant-baseline="ideographic">Data Ingestion </tspan><tspan x="23.36" y="58" dominant-baseline="ideographic">&amp; Simulation</tspan></text></g></g></g><g id="g-root-tx_preproce_1qd8ctwctjswa-fill" data-item-order="0" transform="translate(194, 158)"><g id="tx_preproce_1qd8ctwctjswa-fill" stroke="none" fill="#4e88e7"><g><text style="font: 20px &quot;Roboto&quot;, sans-serif; white-space: pre;" font-size="20px" font-family="'Roboto', sans-serif"><tspan x="15.58" y="34" dominant-baseline="ideographic">Preprocessing </tspan><tspan x="18.74" y="58" dominant-baseline="ideographic">&amp; Sequencing</tspan></text></g></g></g><g id="g-root-tx_signatur_1d3n9pwctjthg-fill" data-item-order="0" transform="translate(380, 170)"><g id="tx_signatur_1d3n9pwctjthg-fill" stroke="none" fill="#7f64ea"><g><text style="font: 20px &quot;Roboto&quot;, sans-serif; white-space: pre;" font-size="20px" font-family="'Roboto', sans-serif"><tspan x="19.17" y="34" dominant-baseline="ideographic">Signature </tspan><tspan x="16.8" y="58" dominant-baseline="ideographic">Extraction </tspan><tspan x="18.13" y="82" dominant-baseline="ideographic">(Encoder)</tspan></text></g></g></g><g id="g-root-tx_anomalya_qp222cctl69y-fill" data-item-order="0" transform="translate(530, 194)"><g id="tx_anomalya_qp222cctl69y-fill" stroke="none" fill="#ba5de5"><g><text style="font: 20px &quot;Roboto&quot;, sans-serif; white-space: pre;" font-size="20px" font-family="'Roboto', sans-serif"><tspan x="40.39" y="34" dominant-baseline="ideographic">Anomaly </tspan><tspan x="15.39" y="58" dominant-baseline="ideographic">Analysis (Core </tspan><tspan x="48.22" y="82" dominant-baseline="ideographic">Model)</tspan></text></g></g></g><g id="g-root-tx_acquirin_v98vskctjuo9-fill" data-item-order="0" transform="translate(26, 230)"><g id="tx_acquirin_v98vskctjuo9-fill" stroke="none" fill="#484848"><g><text style="font: 20px &quot;Roboto&quot;, sans-serif; white-space: pre;" font-size="20px" font-family="'Roboto', sans-serif"><tspan x="12" y="34" dominant-baseline="ideographic">Acquiring and </tspan><tspan x="12" y="58" dominant-baseline="ideographic">storing time-</tspan><tspan x="12" y="82" dominant-baseline="ideographic">series data</tspan></text></g></g></g><g id="g-root-tx_anomalys_dfgyycctl6v4-fill" data-item-order="0" transform="translate(722, 230)"><g id="tx_anomalys_dfgyycctl6v4-fill" stroke="none" fill="#de58a9"><g><text style="font: 20px &quot;Roboto&quot;, sans-serif; white-space: pre;" font-size="20px" font-family="'Roboto', sans-serif"><tspan x="16.39" y="34" dominant-baseline="ideographic">Anomaly </tspan><tspan x="21.67" y="58" dominant-baseline="ideographic">Scoring</tspan></text></g></g></g><g id="g-root-tx_normaliz_i0a9roctjs3n-fill" data-item-order="0" transform="translate(194, 254)"><g id="tx_normaliz_i0a9roctjs3n-fill" stroke="none" fill="#484848"><g><text style="font: 20px &quot;Roboto&quot;, sans-serif; white-space: pre;" font-size="20px" font-family="'Roboto', sans-serif"><tspan x="12" y="46" dominant-baseline="ideographic">Normalizing and </tspan><tspan x="12" y="70" dominant-baseline="ideographic">segmenting </tspan><tspan x="12" y="94" dominant-baseline="ideographic">data</tspan></text></g></g></g><g id="g-root-tx_deployme_1qbcxkkctl81u-fill" data-item-order="0" transform="translate(866, 254)"><g id="tx_deployme_1qbcxkkctl81u-fill" stroke="none" fill="#e55753"><g><text style="font: 20px &quot;Roboto&quot;, sans-serif; white-space: pre;" font-size="20px" font-family="'Roboto', sans-serif"><tspan x="17.67" y="34" dominant-baseline="ideographic">Deployment &amp; </tspan><tspan x="22.4" y="58" dominant-baseline="ideographic">Visualization</tspan></text></g></g></g><g id="g-root-tx_transfor_w35gctl79p-fill" data-item-order="0" transform="translate(362, 278)"><g id="tx_transfor_w35gctl79p-fill" stroke="none" fill="#484848"><g><text style="font: 20px &quot;Roboto&quot;, sans-serif; white-space: pre;" font-size="20px" font-family="'Roboto', sans-serif"><tspan x="12" y="34" dominant-baseline="ideographic">Transforming </tspan><tspan x="12" y="58" dominant-baseline="ideographic">sequences into </tspan><tspan x="12" y="82" dominant-baseline="ideographic">behavioral </tspan><tspan x="12" y="106" dominant-baseline="ideographic">signatures</tspan></text></g></g></g><g id="g-root-tx_analyzin_1cws1roctl8gf-fill" data-item-order="0" transform="translate(530, 302)"><g id="tx_analyzin_1cws1roctl8gf-fill" stroke="none" fill="#484848"><g><text style="font: 20px &quot;Roboto&quot;, sans-serif; white-space: pre;" font-size="20px" font-family="'Roboto', sans-serif"><tspan x="12" y="34" dominant-baseline="ideographic">Analyzing </tspan><tspan x="12" y="58" dominant-baseline="ideographic">signatures to </tspan><tspan x="12" y="82" dominant-baseline="ideographic">detect </tspan><tspan x="12" y="106" dominant-baseline="ideographic">anomalies</tspan></text></g></g></g><g id="g-root-tx_computin_zn6ynoctl91l-fill" data-item-order="0" transform="translate(698, 326)"><g id="tx_computin_zn6ynoctl91l-fill" stroke="none" fill="#484848"><g><text style="font: 20px &quot;Roboto&quot;, sans-serif; white-space: pre;" font-size="20px" font-family="'Roboto', sans-serif"><tspan x="12" y="34" dominant-baseline="ideographic">Computing </tspan><tspan x="12" y="58" dominant-baseline="ideographic">health scores </tspan><tspan x="12" y="82" dominant-baseline="ideographic">based on errors</tspan></text></g></g></g><g id="g-root-tx_providin_dilcdwctl79n-fill" data-item-order="0" transform="translate(866, 350)"><g id="tx_providin_dilcdwctl79n-fill" stroke="none" fill="#484848"><g><text style="font: 20px &quot;Roboto&quot;, sans-serif; white-space: pre;" font-size="20px" font-family="'Roboto', sans-serif"><tspan x="12" y="34" dominant-baseline="ideographic">Providing real-</tspan><tspan x="12" y="58" dominant-baseline="ideographic">time </tspan><tspan x="12" y="82" dominant-baseline="ideographic">monitoring and </tspan><tspan x="12" y="106" dominant-baseline="ideographic">reporting</tspan></text></g></g></g><g id="g-root-sy_1_cu_v4vk6sctjs3l-stroke" data-item-order="-239068" transform="translate(14, 110)"><g id="sy_1_cu_v4vk6sctjs3l-stroke" fill="none" stroke-linecap="round" stroke-linejoin="round" stroke-miterlimit="4" stroke="#1eabda" stroke-width="2"><g><path d="M 10 106L 10 10L 226 10L 178 34L 178 106L 10 106Z"></path></g></g></g><g id="g-root-sy_2_cu_4il0j8ctjs3m-stroke" data-item-order="-239064" transform="translate(182.00009155273438, 110)"><g id="sy_2_cu_4il0j8ctjs3m-stroke" fill="none" stroke-linecap="round" stroke-linejoin="round" stroke-miterlimit="4" stroke="#4e88e7" stroke-width="2"><g><path d="M 10 130L 10 34L 226 34L 178 58L 178 130L 10 130ZM 58 10L 58 34L 10 34L 58 10Z"></path></g></g></g><g id="g-root-sy_3_cu_1hcljw4ctjua3-stroke" data-item-order="-239060" transform="translate(350.0000915527344, 134)"><g id="sy_3_cu_1hcljw4ctjua3-stroke" fill="none" stroke-linecap="round" stroke-linejoin="round" stroke-miterlimit="4" stroke="#7f64ea" stroke-width="2"><g><path d="M 10 130L 10 34L 226 34L 178 58L 178 130L 10 130ZM 58.000022 10L 58.000022 34L 10.000122 34L 58.000022 10Z"></path></g></g></g><g id="g-root-sy_4_cu_zly0hgctjthg-stroke" data-item-order="-239056" transform="translate(518.0001220703125, 158)"><g id="sy_4_cu_zly0hgctjthg-stroke" fill="none" stroke-linecap="round" stroke-linejoin="round" stroke-miterlimit="4" stroke="#ba5de5" stroke-width="2"><g><path d="M 10 34L 10 130L 178 130L 178 58L 226 34L 10 34ZM 57.9999 10L 57.9999 34L 10 34L 57.9999 10Z"></path></g></g></g><g id="g-root-sy_5_cu_dfgyycctjsp9-stroke" data-item-order="-239052" transform="translate(686, 182)"><g id="sy_5_cu_dfgyycctjsp9-stroke" fill="none" stroke-linecap="round" stroke-linejoin="round" stroke-miterlimit="4" stroke="#de58a9" stroke-width="2"><g><path d="M 10.000122 130L 10.000122 34L 226.000122 34L 178.000122 58L 178.000122 130L 10.000122 130ZM 58.0001 10L 58.0001 34L 10 34L 58.0001 10Z"></path></g></g></g><g id="g-root-sy_6_cu_1upxhisctjrpi-stroke" data-item-order="-239048" transform="translate(854, 206)"><g id="sy_6_cu_1upxhisctjrpi-stroke" fill="none" stroke-linecap="round" stroke-linejoin="round" stroke-miterlimit="4" stroke="#e55753" stroke-width="2"><g><path d="M 10 130L 10 34L 166 34L 166 22L 214 82L 166 143L 166 130L 10 130ZM 58 10L 58 34L 10 34L 58 10Z"></path></g></g></g><g id="g-root-tx_timeseri_1hegz5gctjtaf-stroke" data-item-order="0" transform="translate(320, 38)"></g><g id="g-root-tx_datainge_5vvucctjtag-stroke" data-item-order="0" transform="translate(26, 134)"></g><g id="g-root-tx_preproce_1qd8ctwctjswa-stroke" data-item-order="0" transform="translate(194, 158)"></g><g id="g-root-tx_signatur_1d3n9pwctjthg-stroke" data-item-order="0" transform="translate(380, 170)"></g><g id="g-root-tx_anomalya_qp222cctl69y-stroke" data-item-order="0" transform="translate(530, 194)"></g><g id="g-root-tx_acquirin_v98vskctjuo9-stroke" data-item-order="0" transform="translate(26, 230)"></g><g id="g-root-tx_anomalys_dfgyycctl6v4-stroke" data-item-order="0" transform="translate(722, 230)"></g><g id="g-root-tx_normaliz_i0a9roctjs3n-stroke" data-item-order="0" transform="translate(194, 254)"></g><g id="g-root-tx_deployme_1qbcxkkctl81u-stroke" data-item-order="0" transform="translate(866, 254)"></g><g id="g-root-tx_transfor_w35gctl79p-stroke" data-item-order="0" transform="translate(362, 278)"></g><g id="g-root-tx_analyzin_1cws1roctl8gf-stroke" data-item-order="0" transform="translate(530, 302)"></g><g id="g-root-tx_computin_zn6ynoctl91l-stroke" data-item-order="0" transform="translate(698, 326)"></g><g id="g-root-tx_providin_dilcdwctl79n-stroke" data-item-order="0" transform="translate(866, 350)"></g></g></g></svg>