<?xml version="1.0" encoding="utf-8" standalone="yes"?>
<!DOCTYPE svg PUBLIC "-//W3C//DTD SVG 1.1//EN" "http://www.w3.org/Graphics/SVG/1.1/DTD/svg11.dtd">
<svg width="925" height="392" viewBox="0 0 925 392" style="fill:none;stroke:none;fill-rule:evenodd;clip-rule:evenodd;stroke-linecap:round;stroke-linejoin:round;stroke-miterlimit:1.5;" version="1.1" xmlns="http://www.w3.org/2000/svg" xmlns:xlink="http://www.w3.org/1999/xlink"><style class="text-font-style fontImports" data-font-family="Roboto">@import url('https://fonts.googleapis.com/css2?family=Roboto:wght@400;700&amp;display=block');</style><g id="items" style="isolation: isolate"><g id="blend" style="mix-blend-mode: normal"><g id="g-root-sy_1_cu_147d8sr1e01eyt-fill" data-item-order="-179572" transform="translate(14, 36)"><g id="sy_1_cu_147d8sr1e01eyt-fill" stroke="none" fill="#edf4ff"><g><path d="M 10 106L 10 10L 226 10L 178 34L 178 106L 10 106Z"></path></g></g></g><g id="g-root-sy_2_cu_4pfowb1e01fri-fill" data-item-order="-179568" transform="translate(182.00009155273438, 36)"><g id="sy_2_cu_4pfowb1e01fri-fill" stroke="none" fill="#e3fff2"><g><path d="M 10 130L 10 34L 226 34L 178 58L 178 130L 10 130ZM 58 10L 58 34L 10 34L 58 10Z"></path></g></g></g><g id="g-root-sy_3_cu_zjfkjv1e02sjz-fill" data-item-order="-179564" transform="translate(350.0000915527344, 60)"><g id="sy_3_cu_zjfkjv1e02sjz-fill" stroke="none" fill="#f4ffdc"><g><path d="M 10 130L 10 34L 226 34L 178 58L 178 130L 10 130ZM 58.000022 10L 58.000022 34L 10.000122 34L 58.000022 10Z"></path></g></g></g><g id="g-root-sy_4_cu_dcyj0r1e02sjk-fill" data-item-order="-179560" transform="translate(518.0001220703125, 84)"><g id="sy_4_cu_dcyj0r1e02sjk-fill" stroke="none" fill="#e8f9ff"><g><path d="M 10 34L 10 130L 178 130L 178 58L 226 34L 10 34ZM 57.9999 10L 57.9999 34L 10 34L 57.9999 10Z"></path></g></g></g><g id="g-root-sy_5_cu_1cw513f1e02t55-fill" data-item-order="-179556" transform="translate(686, 108)"><g id="sy_5_cu_1cw513f1e02t55-fill" stroke="none" fill="#f3f0ff"><g><path d="M 10.000122 130L 10.000122 34L 166.000122 34L 166.000122 22L 214.000122 82L 166.000122 143L 166.000122 130L 10.000122 130ZM 58.0001 10L 58.0001 34L 10 34L 58.0001 10Z"></path></g></g></g><g id="g-root-tx_ingestio_142dg3v1e02sy3-fill" data-item-order="0" transform="translate(32, 60)"><g id="tx_ingestio_142dg3v1e02sy3-fill" stroke="none" fill="#4e88e7"><g><text style="font: 20px &quot;Roboto&quot;, sans-serif; white-space: pre;" font-size="20px" font-family="'Roboto', sans-serif"><tspan x="13.68" y="34" dominant-baseline="ideographic">Ingestion des </tspan><tspan x="35.37" y="58" dominant-baseline="ideographic">données</tspan></text></g></g></g><g id="g-root-tx_prtraite_1d14tsb1e02sjx-fill" data-item-order="0" transform="translate(200, 72)"><g id="tx_prtraite_1d14tsb1e02sjx-fill" stroke="none" fill="#3cc583"><g><text style="font: 20px &quot;Roboto&quot;, sans-serif; white-space: pre;" font-size="20px" font-family="'Roboto', sans-serif"><tspan x="12.83" y="34" dominant-baseline="ideographic">Prétraitement </tspan><tspan x="28.91" y="58" dominant-baseline="ideographic">et Feature </tspan><tspan x="21.17" y="82" dominant-baseline="ideographic">Engineering</tspan></text></g></g></g><g id="g-root-tx_modlisat_13ymll71e0493b-fill" data-item-order="0" transform="translate(374, 120)"><g id="tx_modlisat_13ymll71e0493b-fill" stroke="none" fill="#92bd39"><g><text style="font: 20px &quot;Roboto&quot;, sans-serif; white-space: pre;" font-size="20px" font-family="'Roboto', sans-serif"><tspan x="12.22" y="34" dominant-baseline="ideographic">Modélisation</tspan></text></g></g></g><g id="g-root-tx_estimati_mb3fm31e048p5-fill" data-item-order="0" transform="translate(536, 132)"><g id="tx_estimati_mb3fm31e048p5-fill" stroke="none" fill="#1eabda"><g><text style="font: 20px &quot;Roboto&quot;, sans-serif; white-space: pre;" font-size="20px" font-family="'Roboto', sans-serif"><tspan x="12.18" y="34" dominant-baseline="ideographic">Estimation du </tspan><tspan x="55.48" y="58" dominant-baseline="ideographic">RUL</tspan></text></g></g></g><g id="g-root-tx_acquisit_1448vd71e02ryc-fill" data-item-order="0" transform="translate(26, 156)"><g id="tx_acquisit_1448vd71e02ryc-fill" stroke="none" fill="#484848"><g><text style="font: 20px &quot;Roboto&quot;, sans-serif; white-space: pre;" font-size="20px" font-family="'Roboto', sans-serif"><tspan x="12" y="34" dominant-baseline="ideographic">Acquisition et </tspan><tspan x="12" y="58" dominant-baseline="ideographic">stockage des </tspan><tspan x="12" y="82" dominant-baseline="ideographic">données de </tspan><tspan x="12" y="106" dominant-baseline="ideographic">RoboDK</tspan></text></g></g></g><g id="g-root-tx_dploieme_1hgbutn1e04937-fill" data-item-order="0" transform="translate(698, 156)"><g id="tx_dploieme_1hgbutn1e04937-fill" stroke="none" fill="#7f64ea"><g><text style="font: 20px &quot;Roboto&quot;, sans-serif; white-space: pre;" font-size="20px" font-family="'Roboto', sans-serif"><tspan x="13.36" y="34" dominant-baseline="ideographic">Déploiement et </tspan><tspan x="40.91" y="58" dominant-baseline="ideographic">Interface</tspan></text></g></g></g><g id="g-root-tx_nettoyag_1qduabv1e02t52-fill" data-item-order="0" transform="translate(194, 180)"><g id="tx_nettoyag_1qduabv1e02t52-fill" stroke="none" fill="#484848"><g><text style="font: 20px &quot;Roboto&quot;, sans-serif; white-space: pre;" font-size="20px" font-family="'Roboto', sans-serif"><tspan x="12" y="34" dominant-baseline="ideographic">Nettoyage, </tspan><tspan x="12" y="58" dominant-baseline="ideographic">normalisation </tspan><tspan x="12" y="82" dominant-baseline="ideographic">et construction </tspan><tspan x="12" y="106" dominant-baseline="ideographic">de signatures</tspan></text></g></g></g><g id="g-root-tx_applicat_qpnzkb1e046io-fill" data-item-order="0" transform="translate(362, 204)"><g id="tx_applicat_qpnzkb1e046io-fill" stroke="none" fill="#484848"><g><text style="font: 20px &quot;Roboto&quot;, sans-serif; white-space: pre;" font-size="20px" font-family="'Roboto', sans-serif"><tspan x="12" y="34" dominant-baseline="ideographic">Développement </tspan><tspan x="12" y="58" dominant-baseline="ideographic">du modèle de </tspan><tspan x="12" y="82" dominant-baseline="ideographic">détection </tspan><tspan x="12" y="106" dominant-baseline="ideographic">d’anomalie</tspan></text></g></g></g><g id="g-root-tx_fusionde_1cz9eiz1e047pe-fill" data-item-order="0" transform="translate(530, 228)"><g id="tx_fusionde_1cz9eiz1e047pe-fill" stroke="none" fill="#484848"><g><text style="font: 20px &quot;Roboto&quot;, sans-serif; white-space: pre;" font-size="20px" font-family="'Roboto', sans-serif"><tspan x="12" y="34" dominant-baseline="ideographic">Fusion des </tspan><tspan x="12" y="58" dominant-baseline="ideographic">erreurs et </tspan><tspan x="12" y="82" dominant-baseline="ideographic">modélisation </tspan><tspan x="12" y="106" dominant-baseline="ideographic">probabiliste</tspan></text></g></g></g><g id="g-root-tx_utilisat_dj79vv1e047ic-fill" data-item-order="0" transform="translate(698, 252)"><g id="tx_utilisat_dj79vv1e047ic-fill" stroke="none" fill="#484848"><g><text style="font: 20px &quot;Roboto&quot;, sans-serif; white-space: pre;" font-size="20px" font-family="'Roboto', sans-serif"><tspan x="12" y="34" dominant-baseline="ideographic">Utilisation de </tspan><tspan x="12" y="58" dominant-baseline="ideographic">Streamlit pour </tspan><tspan x="12" y="82" dominant-baseline="ideographic">la visualisation </tspan><tspan x="12" y="106" dominant-baseline="ideographic">et le contrôle</tspan></text></g></g></g><g id="g-root-sy_1_cu_147d8sr1e01eyt-stroke" data-item-order="-179572" transform="translate(14, 36)"><g id="sy_1_cu_147d8sr1e01eyt-stroke" fill="none" stroke-linecap="round" stroke-linejoin="round" stroke-miterlimit="4" stroke="#4e88e7" stroke-width="2"><g><path d="M 10 106L 10 10L 226 10L 178 34L 178 106L 10 106Z"></path></g></g></g><g id="g-root-sy_2_cu_4pfowb1e01fri-stroke" data-item-order="-179568" transform="translate(182.00009155273438, 36)"><g id="sy_2_cu_4pfowb1e01fri-stroke" fill="none" stroke-linecap="round" stroke-linejoin="round" stroke-miterlimit="4" stroke="#3cc583" stroke-width="2"><g><path d="M 10 130L 10 34L 226 34L 178 58L 178 130L 10 130ZM 58 10L 58 34L 10 34L 58 10Z"></path></g></g></g><g id="g-root-sy_3_cu_zjfkjv1e02sjz-stroke" data-item-order="-179564" transform="translate(350.0000915527344, 60)"><g id="sy_3_cu_zjfkjv1e02sjz-stroke" fill="none" stroke-linecap="round" stroke-linejoin="round" stroke-miterlimit="4" stroke="#92bd39" stroke-width="2"><g><path d="M 10 130L 10 34L 226 34L 178 58L 178 130L 10 130ZM 58.000022 10L 58.000022 34L 10.000122 34L 58.000022 10Z"></path></g></g></g><g id="g-root-sy_4_cu_dcyj0r1e02sjk-stroke" data-item-order="-179560" transform="translate(518.0001220703125, 84)"><g id="sy_4_cu_dcyj0r1e02sjk-stroke" fill="none" stroke-linecap="round" stroke-linejoin="round" stroke-miterlimit="4" stroke="#1eabda" stroke-width="2"><g><path d="M 10 34L 10 130L 178 130L 178 58L 226 34L 10 34ZM 57.9999 10L 57.9999 34L 10 34L 57.9999 10Z"></path></g></g></g><g id="g-root-sy_5_cu_1cw513f1e02t55-stroke" data-item-order="-179556" transform="translate(686, 108)"><g id="sy_5_cu_1cw513f1e02t55-stroke" fill="none" stroke-linecap="round" stroke-linejoin="round" stroke-miterlimit="4" stroke="#7f64ea" stroke-width="2"><g><path d="M 10.000122 130L 10.000122 34L 166.000122 34L 166.000122 22L 214.000122 82L 166.000122 143L 166.000122 130L 10.000122 130ZM 58.0001 10L 58.0001 34L 10 34L 58.0001 10Z"></path></g></g></g><g id="g-root-tx_ingestio_142dg3v1e02sy3-stroke" data-item-order="0" transform="translate(32, 60)"></g><g id="g-root-tx_prtraite_1d14tsb1e02sjx-stroke" data-item-order="0" transform="translate(200, 72)"></g><g id="g-root-tx_modlisat_13ymll71e0493b-stroke" data-item-order="0" transform="translate(374, 120)"></g><g id="g-root-tx_estimati_mb3fm31e048p5-stroke" data-item-order="0" transform="translate(536, 132)"></g><g id="g-root-tx_acquisit_1448vd71e02ryc-stroke" data-item-order="0" transform="translate(26, 156)"></g><g id="g-root-tx_dploieme_1hgbutn1e04937-stroke" data-item-order="0" transform="translate(698, 156)"></g><g id="g-root-tx_nettoyag_1qduabv1e02t52-stroke" data-item-order="0" transform="translate(194, 180)"></g><g id="g-root-tx_applicat_qpnzkb1e046io-stroke" data-item-order="0" transform="translate(362, 204)"></g><g id="g-root-tx_fusionde_1cz9eiz1e047pe-stroke" data-item-order="0" transform="translate(530, 228)"></g><g id="g-root-tx_utilisat_dj79vv1e047ic-stroke" data-item-order="0" transform="translate(698, 252)"></g></g></g></svg>